<?xml version="1.0" standalone="no"?>
<!DOCTYPE svg PUBLIC "-//W3C//DTD SVG 20010904//EN"
 "http://www.w3.org/TR/2001/REC-SVG-20010904/DTD/svg10.dtd">
<svg version="1.0" xmlns="http://www.w3.org/2000/svg"
 width="204.000000pt" height="204.000000pt" viewBox="0 0 204.000000 204.000000"
 preserveAspectRatio="xMidYMid meet">

<g transform="translate(0.000000,204.000000) scale(0.100000,-0.100000)"
fill="#000000" stroke="none">
<path d="M847 1900 c-42 -10 -92 -23 -110 -30 -67 -25 -167 -74 -167 -82 0 -4
-6 -8 -13 -8 -7 0 -24 -11 -39 -25 -15 -14 -31 -25 -35 -25 -18 0 -91 -84 -86
-99 4 -12 3 -13 -5 -3 -7 11 -17 4 -44 -30 -66 -82 -78 -100 -72 -109 3 -5 1
-9 -4 -9 -12 0 -57 -94 -90 -190 -25 -69 -27 -88 -27 -245 0 -137 5 -190 22
-270 34 -159 44 -206 54 -275 5 -36 15 -77 21 -92 9 -26 15 -28 63 -28 60 0
87 19 65 45 -7 8 -16 13 -20 10 -4 -2 -10 30 -14 72 -4 43 -12 83 -18 90 -6 7
-11 50 -11 96 -1 50 -4 72 -8 57 l-7 -25 -1 28 c-1 15 -5 27 -10 27 -14 0 -43
169 -42 248 1 109 40 265 88 355 8 15 20 38 27 51 22 44 81 115 99 121 9 4 17
12 17 19 0 14 55 66 70 66 5 0 10 4 10 8 0 4 13 16 30 25 16 10 35 23 43 30
21 20 58 39 85 43 15 3 31 9 37 13 5 5 42 17 80 27 103 26 323 23 408 -7 92
-32 117 -43 117 -51 0 -5 10 -8 23 -8 13 0 33 -9 45 -20 12 -11 26 -20 31 -20
6 0 16 -9 23 -20 7 -11 17 -20 22 -20 14 0 128 -119 163 -170 42 -62 93 -173
93 -202 0 -13 4 -28 8 -34 35 -40 43 -251 13 -374 -14 -59 -23 -78 -42 -87
-20 -10 -21 -13 -5 -13 14 0 17 -5 12 -24 -6 -23 -25 -152 -26 -171 0 -12 -27
37 -33 62 -4 15 -5 15 -6 -2 0 -12 3 -25 8 -30 12 -13 25 -79 15 -72 -5 3 -10
-7 -10 -21 -1 -15 -3 -48 -5 -75 l-5 -47 56 0 56 0 28 153 c15 83 37 195 48
247 25 123 34 316 19 406 -7 38 -24 103 -39 144 -26 74 -87 192 -104 198 -4 2
-8 8 -8 14 0 30 -125 157 -219 222 -187 130 -460 186 -674 136z m-57 -80 c8
-5 11 -10 5 -10 -5 0 -17 5 -25 10 -8 5 -10 10 -5 10 6 0 17 -5 25 -10z m610
-10 c8 -5 11 -10 5 -10 -5 0 -17 5 -25 10 -8 5 -10 10 -5 10 6 0 17 -5 25 -10z
m145 -88 c-3 -3 -11 0 -18 7 -9 10 -8 11 6 5 10 -3 15 -9 12 -12z m282 -844
c-3 -8 -6 -5 -6 6 -1 11 2 17 5 13 3 -3 4 -12 1 -19z"/>
<path d="M420 863 c-70 -26 -76 -30 -67 -39 4 -4 18 1 32 10 14 9 30 14 35 11
6 -3 10 -1 10 4 0 16 26 13 44 -5 9 -8 16 -12 16 -7 0 4 5 1 10 -7 8 -13 10
-12 10 3 0 9 -7 17 -15 17 -16 0 -16 20 0 32 17 13 -7 7 -75 -19z"/>
<path d="M1565 876 c11 -8 29 -15 40 -15 16 0 17 1 5 8 -8 5 -26 12 -40 16
-24 7 -24 7 -5 -9z"/>
<path d="M1550 845 c1 -26 2 -28 11 -12 8 14 8 22 0 30 -8 8 -11 3 -11 -18z"/>
<path d="M1650 850 c8 -5 20 -10 25 -10 6 0 3 5 -5 10 -8 5 -19 10 -25 10 -5
0 -3 -5 5 -10z"/>
<path d="M1577 822 c-7 -35 -3 -38 11 -7 6 13 7 27 3 30 -5 2 -11 -8 -14 -23z"/>
<path d="M1691 835 c-1 -21 14 -32 34 -24 19 7 19 8 -2 8 -12 1 -24 7 -26 14
-3 6 -6 8 -6 2z"/>
<path d="M307 813 c-10 -9 -9 -23 2 -23 5 0 11 7 15 15 5 15 -5 20 -17 8z"/>
<path d="M1532 788 c2 -12 8 -23 14 -25 7 -2 10 6 7 22 -6 30 -26 34 -21 3z"/>
<path d="M348 793 c7 -3 16 -2 19 1 4 3 -2 6 -13 5 -11 0 -14 -3 -6 -6z"/>
<path d="M490 795 c0 -5 5 -17 10 -25 5 -8 10 -10 10 -5 0 6 -5 17 -10 25 -5
8 -10 11 -10 5z"/>
<path d="M1720 790 c-8 -5 -10 -10 -5 -10 6 0 17 5 25 10 8 5 11 10 5 10 -5 0
-17 -5 -25 -10z"/>
<path d="M1711 696 c-6 -16 -10 -37 -8 -45 3 -10 5 -8 6 6 0 12 6 23 12 25 6
2 9 13 7 23 -4 17 -7 16 -17 -9z"/>
<path d="M511 693 c-1 -17 16 -25 25 -12 4 7 3 9 -4 5 -5 -3 -13 0 -15 6 -4 9
-6 10 -6 1z"/>
<path d="M491 670 c0 -8 4 -22 9 -30 12 -18 12 -2 0 25 -6 13 -9 15 -9 5z"/>
<path d="M530 646 c0 -8 -3 -23 -7 -33 -6 -17 -6 -17 10 -1 19 19 22 34 7 43
-5 3 -10 0 -10 -9z"/>
<path d="M1512 620 c0 -14 2 -19 5 -12 2 6 2 18 0 25 -3 6 -5 1 -5 -13z"/>
<path d="M352 580 c0 -14 2 -19 5 -12 2 6 2 18 0 25 -3 6 -5 1 -5 -13z"/>
<path d="M1491 584 c0 -11 3 -14 6 -6 3 7 2 16 -1 19 -3 4 -6 -2 -5 -13z"/>
<path d="M1487 546 c-9 -24 -9 -28 3 -21 6 3 11 -4 11 -17 1 -14 3 -17 6 -7 2
8 0 26 -5 39 -7 20 -9 21 -15 6z"/>
<path d="M381 540 c0 -8 4 -24 9 -35 l9 -20 0 20 c0 11 -4 27 -9 35 -9 13 -10
13 -9 0z"/>
<path d="M562 460 c0 -14 2 -19 5 -12 2 6 2 18 0 25 -3 6 -5 1 -5 -13z"/>
<path d="M1473 465 c-17 -19 -16 -25 2 -25 8 0 15 9 15 20 0 23 -1 24 -17 5z"/>
<path d="M581 424 c0 -11 3 -14 6 -6 3 7 2 16 -1 19 -3 4 -6 -2 -5 -13z"/>
<path d="M1502 415 c0 -16 2 -22 5 -12 2 9 2 23 0 30 -3 6 -5 -1 -5 -18z"/>
<path d="M577 379 c-4 -13 -4 -25 -2 -28 3 -2 5 1 5 8 0 7 5 9 10 6 12 -8 13
5 1 23 -6 10 -10 8 -14 -9z"/>
<path d="M1457 383 c-13 -12 -7 -23 13 -23 11 0 20 7 20 15 0 15 -21 21 -33 8z"/>
<path d="M1656 338 c-3 -13 -6 -34 -6 -48 0 -14 -7 -38 -15 -54 -8 -15 -13
-32 -10 -36 9 -15 -18 -24 -62 -21 -26 1 -43 -2 -43 -8 0 -15 83 -14 102 2 15
12 32 68 44 145 6 45 0 57 -10 20z"/>
<path d="M380 314 c0 -14 4 -23 10 -19 6 3 10 15 10 26 0 10 -4 19 -10 19 -5
0 -10 -12 -10 -26z"/>
<path d="M1631 320 c-1 -14 -4 -36 -6 -50 l-6 -25 11 25 c6 13 9 36 7 50 l-4
25 -2 -25z"/>
<path d="M1602 305 c0 -16 2 -22 5 -12 2 9 2 23 0 30 -3 6 -5 -1 -5 -18z"/>
<path d="M590 301 c0 -12 6 -21 15 -21 8 0 15 4 15 9 0 5 -7 14 -15 21 -13 10
-15 9 -15 -9z"/>
<path d="M1433 255 c0 -22 2 -30 4 -17 2 12 2 30 0 40 -3 9 -5 -1 -4 -23z"/>
<path d="M392 250 c0 -19 2 -27 5 -17 2 9 2 25 0 35 -3 9 -5 1 -5 -18z"/>
<path d="M572 260 c0 -14 2 -19 5 -12 2 6 2 18 0 25 -3 6 -5 1 -5 -13z"/>
<path d="M602 230 c-16 -27 -15 -30 8 -30 21 0 26 16 12 37 -6 9 -11 7 -20 -7z"/>
<path d="M1601 234 c0 -11 3 -14 6 -6 3 7 2 16 -1 19 -3 4 -6 -2 -5 -13z"/>
<path d="M400 189 c0 -5 7 -9 15 -9 8 0 15 -4 15 -10 0 -6 42 -10 105 -10 71
0 105 4 105 11 0 8 -31 10 -100 7 -55 -2 -100 -1 -100 3 0 4 -9 9 -20 12 -11
3 -20 1 -20 -4z"/>
<path d="M1425 170 c3 -5 8 -10 11 -10 2 0 4 5 4 10 0 6 -5 10 -11 10 -5 0 -7
-4 -4 -10z"/>
</g>
</svg>
